HIERARCHY
ROOT Hips
{
	OFFSET 0.00000 0.00000 0.00000
	CHANNELS 6 Xposition Yposition Zposition Zrotation Yrotation Xrotation 
	JOINT LHipJoint
	{
		OFFSET 0 0 0
		CHANNELS 3 Zrotation Yrotation Xrotation
		JOINT LeftUpLeg
		{
			OFFSET 1.64577 -1.42384 0.94276
			CHANNELS 3 Zrotation Yrotation Xrotation
			JOINT LeftLeg
			{
				OFFSET 2.11538 -5.81197 0.00000
				CHANNELS 3 Zrotation Yrotation Xrotation
				JOINT LeftFoot
				{
					OFFSET 2.36541 -6.49893 0.00000
					CHANNELS 3 Zrotation Yrotation Xrotation
					JOINT LeftToeBase
					{
						OFFSET 0.17759 -0.48793 1.73865
						CHANNELS 3 Zrotation Yrotation Xrotation
						End Site
						{
							OFFSET 0.00000 -0.00000 0.91205
						}
					}
				}
			}
		}
	}
	JOINT RHipJoint
	{
		OFFSET 0 0 0
		CHANNELS 3 Zrotation Yrotation Xrotation
		JOINT RightUpLeg
		{
			OFFSET -1.43750 -1.42384 0.94276
			CHANNELS 3 Zrotation Yrotation Xrotation
			JOINT RightLeg
			{
				OFFSET -2.10480 -5.78291 0.00000
				CHANNELS 3 Zrotation Yrotation Xrotation
				JOINT RightFoot
				{
					OFFSET -2.34880 -6.45329 0.00000
					CHANNELS 3 Zrotation Yrotation Xrotation
					JOINT RightToeBase
					{
						OFFSET -0.22842 -0.62757 1.80469
						CHANNELS 3 Zrotation Yrotation Xrotation
						End Site
						{
							OFFSET -0.00000 -0.00000 0.95886
						}
					}
				}
			}
		}
	}
	JOINT LowerBack
	{
		OFFSET 0 0 0
		CHANNELS 3 Zrotation Yrotation Xrotation
		JOINT Spine
		{
			OFFSET 0.06217 1.93758 -0.49272
			CHANNELS 3 Zrotation Yrotation Xrotation
			JOINT Spine1
			{
				OFFSET -0.03114 2.03621 -0.05830
				CHANNELS 3 Zrotation Yrotation Xrotation
				JOINT Neck
				{
					OFFSET 0 0 0
					CHANNELS 3 Zrotation Yrotation Xrotation
					JOINT Neck1
					{
						OFFSET 0.04421 1.41010 0.26562
						CHANNELS 3 Zrotation Yrotation Xrotation
						JOINT Head
						{
							OFFSET -0.13407 1.43847 0.06181
							CHANNELS 3 Zrotation Yrotation Xrotation
							End Site
							{
								OFFSET -0.04980 1.45844 -0.00689
							}
						}
					}
				}
				JOINT LeftShoulder
				{
					OFFSET 0 0 0
					CHANNELS 3 Zrotation Yrotation Xrotation
					JOINT LeftArm
					{
						OFFSET 2.18382 1.47753 -0.35694
						CHANNELS 3 Zrotation Yrotation Xrotation
						JOINT LeftForeArm
						{
							OFFSET 5.05460 -0.00000 0.00000
							CHANNELS 3 Zrotation Yrotation Xrotation
							JOINT LeftHand
							{
								OFFSET 3.39013 -0.00000 0.00000
								CHANNELS 3 Zrotation Yrotation Xrotation
								JOINT LeftFingerBase
								{
									OFFSET 0 0 0
									CHANNELS 3 Zrotation Yrotation Xrotation
									JOINT LeftHandIndex1
									{
										OFFSET 0.57242 -0.00000 -0.00000
										CHANNELS 3 Zrotation Yrotation Xrotation
										End Site
										{
											OFFSET 0.46150 -0.00000 -0.00000
										}
									}
								}
								JOINT LThumb
								{
									OFFSET 0 0 0
									CHANNELS 3 Zrotation Yrotation Xrotation
									End Site
									{
										OFFSET 0.46855 -0.00000 0.46855
									}
								}
							}
						}
					}
				}
				JOINT RightShoulder
				{
					OFFSET 0 0 0
					CHANNELS 3 Zrotation Yrotation Xrotation
					JOINT RightArm
					{
						OFFSET -2.06033 1.72839 -0.47437
						CHANNELS 3 Zrotation Yrotation Xrotation
						JOINT RightForeArm
						{
							OFFSET -5.07010 -0.00000 0.00000
							CHANNELS 3 Zrotation Yrotation Xrotation
							JOINT RightHand
							{
								OFFSET -3.14957 -0.00000 -0.00000
								CHANNELS 3 Zrotation Yrotation Xrotation
								JOINT RightFingerBase
								{
									OFFSET 0 0 0
									CHANNELS 3 Zrotation Yrotation Xrotation
									JOINT RightHandIndex1
									{
										OFFSET -0.71819 -0.00000 -0.00000
										CHANNELS 3 Zrotation Yrotation Xrotation
										End Site
										{
											OFFSET -0.57902 -0.00000 -0.00000
										}
									}
								}
								JOINT RThumb
								{
									OFFSET 0 0 0
									CHANNELS 3 Zrotation Yrotation Xrotation
									End Site
									{
										OFFSET -0.58786 -0.00000 0.58786
									}
								}
							}
						}
					}
				}
			}
		}
	}
}
MOTION
Frames: 7
Frame Time: 0.105263
0.00 0.00 0.00 0 0 0 0 0 0 -21 0 0 0 0 0 0 0 0 0 0 0 0 0 0 21 0 0 0 0 0 0 0 0 0 0 0 0 0 0 0 0 0 0 0 0 0 0 -16 0 0 21 0 0 11 0 0 0 -8 0 0 0 0 0 0 0 0 0 0 0 0 0 0 0 0 0 0 0 0 8 0 0 0 0 0 0 0 0 0 0 0 0 0 0 0 0 0
0.00 0.00 0.00 -182.2440 -85.8662 180.2190 0.0000 0.0000 0.0000 -30.7845 -15.0144 4.0982 1.7456 8.3148 23.6744 2.2105 14.9134 -36.6196 0.2288 3.0789 8.4984 0.0000 0.0000 0.0000 18.3373 8.2727 -16.4659 -5.6289 -14.0588 43.4735 -1.1349 -16.8483 -32.2587 -1.0849 6.6201 -18.5947 -4.5017 2.5477 8.3986 -2.1120 2.8445 2.9012 0.0621 1.3606 -1.8096 7.3756 3.3325 -9.2486 -1.5480 3.4931 14.9201 -1.4201 1.9344 6.2203 0.0000 -0.0000 0.0000 -79.7510 4.4725 45.9482 18.8317 -29.2090 -4.9484 -0.0000 0.0000 -6.4157 16.3954 13.6013 3.9581 -7.1250 0.0000 -0.0000 -10.0808 43.9018 0.2762 0.0000 -0.0000 0.0000 87.8684 -2.4321 38.2006 -19.4344 29.9549 -5.2460 0.0000 -0.0000 -17.0037 -15.8305 0.3640 -0.1032 7.1250 -0.0000 -0.0000 8.4086 -29.5510 3.1988
0.00 0.00 0.00 -304.0440 -88.7257 302.6110 0.0000 0.0000 0.0000 -33.3895 -11.1702 17.2389 0.1910 2.8146 7.7629 0.9185 16.9710 -31.0202 0.0494 1.4342 3.9444 0.0000 0.0000 0.0000 22.1433 16.2908 -23.3300 -4.0177 -12.1839 36.3857 -0.7429 -15.8884 -28.6854 -1.7889 8.4117 -23.9717 -6.1827 1.5194 8.1590 -1.5497 1.4016 3.7040 1.7431 0.5916 -0.8406 7.8754 3.2706 -8.7943 -1.4398 3.3496 14.6525 -1.4854 1.8968 6.0606 0.0000 0.0000 0.0000 -85.2777 -4.6493 31.9800 14.1241 -22.9119 -2.8763 -0.0000 0.0000 -0.3236 20.8748 15.3826 5.7764 -7.1250 0.0000 -0.0000 -6.3949 46.2868 -0.2039 0.0000 0.0000 0.0000 87.4383 -4.4236 34.6414 -17.2908 27.2395 -4.2196 0.0000 -0.0000 -15.4472 -17.4762 4.6471 -1.4612 7.1250 -0.0000 -0.0000 6.8868 -25.1062 3.3370
0.00 0.00 0.00 -356.5350 -86.1378 355.9370 0.0000 0.0000 0.0000 -28.6537 -0.8592 12.5243 1.7711 8.3720 23.8497 1.0854 5.4981 -22.3895 1.0122 -6.4013 -17.9533 0.0000 0.0000 0.0000 25.7765 18.2916 -15.3603 -3.0971 -10.8506 31.7778 -0.5868 -15.8566 -27.5098 -1.1690 6.8631 -19.3104 -2.9574 1.1203 6.8255 -0.5409 1.2179 3.7269 1.0202 0.5319 -0.0330 11.1142 5.8084 -4.9556 -4.7842 7.2487 9.7348 -2.8550 3.7225 4.3118 -0.0000 0.0000 0.0000 -85.0549 -1.6181 40.7456 19.5801 -30.1331 -5.3189 -0.0000 0.0000 -4.3742 20.9584 13.8750 5.2480 -7.1250 0.0000 -0.0000 -6.0012 44.7118 0.0428 -0.0000 0.0000 0.0000 87.1071 -5.6130 30.6590 -15.8437 25.3082 -3.5789 0.0000 -0.0000 -15.0853 -15.8055 1.9906 -0.5634 7.1250 -0.0000 -0.0000 8.3006 -27.8783 3.4897
0.00 0.00 0.00 -375.5980 -84.9464 374.9750 0.0000 0.0000 0.0000 -23.2600 0.5624 1.1636 5.7353 14.1669 43.9101 0.2989 -1.0783 -10.0041 2.3582 -9.5754 -27.6125 0.0000 0.0000 0.0000 28.6582 16.9897 -11.2790 -2.7575 -10.2917 29.9266 -0.9378 -15.5450 -29.6818 -0.7523 5.5398 -15.4549 -0.2812 1.0121 6.9767 -0.1839 1.2448 3.4360 -0.1198 0.5856 -0.3715 10.8328 5.8146 -4.9128 -4.4816 7.2555 9.7972 -2.7177 3.7317 4.3030 -0.0000 0.0000 0.0000 -84.7678 0.9270 39.2429 19.7865 -30.3843 -5.4230 -0.0000 0.0000 -6.9667 21.4648 14.0660 5.4588 -7.1250 0.0000 -0.0000 -5.5739 44.9749 0.0035 -0.0000 0.0000 0.0000 87.0072 -6.1007 31.1904 -16.6682 26.4183 -3.9386 0.0000 -0.0000 -16.6609 -15.3691 1.7581 -0.4832 7.1250 -0.0000 -0.0000 8.6528 -28.1182 3.5913
0.00 0.00 0.00 -392.3950 -83.9456 390.5560 0.0000 0.0000 0.0000 -17.7232 -2.3458 -10.4036 11.7166 18.2683 65.0876 0.0822 -1.9331 -5.0907 2.0090 -8.8848 -25.4356 0.0000 0.0000 0.0000 32.2444 13.8836 -5.1830 -2.2010 -9.2728 26.6524 -1.1765 -15.2611 -30.9782 -0.7065 5.3722 -14.9732 1.9634 1.4348 8.2267 0.3930 1.9438 3.9274 -0.8602 0.9449 -0.4958 10.7145 5.6524 -4.7687 -4.9400 7.1055 8.1337 -2.8702 3.6190 3.7697 0.0000 0.0000 0.0000 -84.8079 3.2462 36.1234 19.5243 -30.0649 -5.2909 -0.0000 0.0000 -6.0167 21.8002 13.6888 5.4071 -7.1250 0.0000 -0.0000 -5.1940 44.6161 0.0494 0.0000 0.0000 0.0000 86.3849 -5.1625 33.0126 -17.8858 28.0107 -4.4955 0.0000 -0.0000 -17.3643 -16.1738 0.9866 -0.2861 7.1250 -0.0000 -0.0000 8.0915 -28.9119 3.2001
0.00 0.00 0.00 -376.9840 -84.0247 375.6220 0.0000 0.0000 0.0000 -16.9239 -14.5635 -23.5795 9.4778 17.1055 57.7283 0.5659 10.9494 -22.1019 0.1406 -2.4165 -6.6581 0.0000 0.0000 0.0000 32.5346 10.4901 4.4521 -1.4796 -7.6856 21.7633 -1.7652 -15.5263 -34.7235 -0.8128 5.7533 -16.0702 2.1384 2.3624 8.5319 -1.1423 3.1768 3.7884 -2.6564 1.5745 -0.6705 10.4642 5.4895 -4.0643 -4.2924 6.9012 4.6512 -3.0015 3.5086 2.8279 -0.0000 0.0000 0.0000 -84.3786 5.0674 24.3722 14.3372 -23.2147 -2.9597 -0.0000 -0.0000 1.5729 20.2911 12.4262 4.5489 -7.1250 0.0000 -0.0000 -6.3310 43.1114 0.2963 -0.0000 0.0000 0.0000 87.1807 -2.8707 35.2372 -19.2537 29.7327 -5.1561 0.0000 -0.0000 -18.3456 -16.8566 0.6897 -0.2090 7.1250 -0.0000 -0.0000 7.5840 -29.2211 2.9399
